<svg width="24" height="24" viewBox="0 0 24 24" fill="none" xmlns="http://www.w3.org/2000/svg">
<path d="M8.4 15C5.592 15 0 17.0057 0 21V24H16.8V21C16.8 17.0057 11.208 15 8.4 15ZM2.808 20.5714C3.816 19.5771 6.252 18.4286 8.4 18.4286C10.548 18.4286 12.984 19.5771 13.992 20.5714H2.808ZM8.4 12C10.716 12 12.6 9.30857 12.6 6C12.6 2.69143 10.716 0 8.4 0C6.084 0 4.2 2.69143 4.2 6C4.2 9.30857 6.084 12 8.4 12ZM8.4 3.42857C9.396 3.42857 10.2 4.57714 10.2 6C10.2 7.42286 9.396 8.57143 8.4 8.57143C7.404 8.57143 6.6 7.42286 6.6 6C6.6 4.57714 7.404 3.42857 8.4 3.42857ZM16.848 15.1029C18.24 16.5429 19.2 18.4629 19.2 21V24H24V21C24 17.5371 19.8 15.5657 16.848 15.1029ZM15.6 12C17.916 12 19.8 9.30857 19.8 6C19.8 2.69143 17.916 0 15.6 0C14.952 0 14.352 0.222857 13.8 0.6C14.556 2.12571 15 3.99429 15 6C15 8.00571 14.556 9.87428 13.8 11.4C14.352 11.7771 14.952 12 15.6 12Z" fill="#575757"/>
</svg>
