<svg width="219" height="285" viewBox="0 0 219 285" fill="none" xmlns="http://www.w3.org/2000/svg">
<path d="M75.241 285C72.7329 285 70.5669 283.914 68.7429 281.743C66.9189 279.571 66.0069 276.993 66.0069 274.007V87.5357H9.23412C6.72609 87.5357 4.56006 86.45 2.73604 84.2786C0.912012 82.1071 0 79.5286 0 76.5429V10.9929C0 8.00715 0.912012 5.42858 2.73604 3.25715C4.56006 1.08572 6.72609 0 9.23412 0H209.649C212.157 0 214.323 1.08572 216.147 3.25715C217.971 5.42858 218.883 8.00715 218.883 10.9929V76.5429C218.883 79.5286 217.971 82.1071 216.147 84.2786C214.323 86.45 212.157 87.5357 209.649 87.5357H152.876V274.007C152.876 276.993 151.964 279.571 150.14 281.743C148.316 283.914 146.15 285 143.642 285H75.241ZM48.5646 12.2143C46.2846 10.8572 44.4606 10.0429 43.0926 9.77142C41.9525 9.22857 40.5845 9.90715 38.9885 11.8072C37.3925 13.4357 36.9365 14.9286 37.6205 16.2857C38.5325 17.6429 39.4445 19.5429 40.3565 21.9857C41.2685 23.8857 41.8385 25.5143 42.0665 26.8714C42.5225 28.2286 43.6626 28.7714 45.4866 28.5C47.9946 28.2286 49.7046 27.6857 50.6167 26.8714C51.7567 26.0572 52.5547 24.2929 53.0107 21.5786C53.6947 18.8643 53.5807 16.9643 52.6687 15.8786C51.7567 14.7929 50.3887 13.5714 48.5646 12.2143ZM27.7024 15.4714L24.2823 12.6214L20.5203 15.0643L22.5723 19.5429L26.3343 19.95L27.7024 15.4714ZM172.37 30.5357C170.318 25.1072 168.266 21.4429 166.214 19.5429C164.162 17.3714 160.742 16.5571 155.954 17.1C151.166 17.6429 148.088 19.4072 146.72 22.3929C145.58 25.1071 144.554 29.1786 143.642 34.6072C142.73 39.7643 142.616 43.7 143.3 46.4143C143.984 48.8572 146.264 51.4357 150.14 54.15C154.472 57.1357 157.892 59.0357 160.4 59.85C163.136 60.6643 166.442 59.0357 170.318 54.9643C174.194 50.8929 176.018 47.2286 175.79 43.9714C175.562 40.7143 174.422 36.2357 172.37 30.5357ZM99.5233 22.3929C95.6472 21.5786 92.6832 21.7143 90.6312 22.8C88.8072 23.8857 86.8691 26.6 84.8171 30.9429C82.7651 36.1 81.3971 40.1714 80.713 43.1571C80.257 46.1429 81.7391 49.5357 85.1591 53.3357C88.8072 57.95 91.9992 60.8 94.7352 61.8857C97.4713 62.7 101.233 61.6143 106.021 58.6286C108.757 57 110.125 55.2357 110.125 53.3357C110.353 51.1643 110.011 48.8572 109.099 46.4143C108.187 43.7 107.503 40.5786 107.047 37.05C106.363 32.7072 105.793 29.3143 105.337 26.8714C105.109 24.4286 103.171 22.9357 99.5233 22.3929ZM63.9548 53.3357C61.9028 49.5357 60.5348 46.1429 59.8508 43.1571C59.1668 39.9 57.0007 38.8143 53.3527 39.9C49.0206 41.2571 46.3986 43.2929 45.4866 46.0072C44.8026 48.45 44.3466 52.25 44.1186 57.4072C43.8906 62.2929 44.1186 65.8214 44.8026 67.9929C45.7146 70.1643 48.1086 72.2 51.9847 74.1C55.8607 76 58.8248 76.6786 60.8768 76.1357C62.9288 75.5929 65.3228 73.4214 68.0589 69.6214C70.3389 66.3643 70.6809 63.7857 69.0849 61.8857C67.7169 59.7143 66.0069 56.8643 63.9548 53.3357ZM20.8623 47.6357C19.7223 46.2786 18.9242 45.1929 18.4682 44.3786C18.0122 43.2929 17.2142 43.1571 16.0742 43.9714C14.7062 44.7857 13.9082 45.7357 13.6802 46.8214C13.4522 47.6357 13.4522 48.9929 13.6802 50.8929C13.9082 52.5214 14.1362 53.7429 14.3642 54.5571C14.8202 55.3714 15.8462 56.05 17.4422 56.5929C18.8102 56.8643 19.7223 56.5929 20.1783 55.7786C20.6343 54.9643 21.2043 53.8786 21.8883 52.5214C22.5723 51.4357 22.6863 50.6214 22.2303 50.0786C22.0023 49.2643 21.5463 48.45 20.8623 47.6357ZM195.969 47.6357C194.145 45.1929 191.865 44.65 189.128 46.0072C187.304 47.0929 185.822 48.0429 184.682 48.8571C183.542 49.4 183.086 51.0286 183.314 53.7429C183.542 56.7286 183.884 59.0357 184.34 60.6643C185.024 62.2929 186.734 63.3786 189.47 63.9214C191.978 64.7357 193.461 64.3286 193.917 62.7C194.373 60.8 195.285 58.4929 196.653 55.7786C198.021 52.7929 197.793 50.0786 195.969 47.6357ZM134.75 54.15C133.838 51.4357 132.812 49.6714 131.672 48.8571C130.76 48.0429 129.05 47.6357 126.542 47.6357C123.806 47.6357 121.754 48.0429 120.386 48.8571C119.018 49.4 117.992 51.1643 117.308 54.15C116.624 57.6786 116.396 60.3929 116.624 62.2929C117.08 63.9214 118.562 65.6857 121.07 67.5857C123.35 69.4857 125.174 70.0286 126.542 69.2143C127.91 68.1286 129.62 66.6357 131.672 64.7357C133.496 63.1071 134.636 61.6143 135.092 60.2571C135.548 58.9 135.434 56.8643 134.75 54.15ZM90.6312 71.6571C87.8951 71.3857 85.7291 71.25 84.1331 71.25C82.7651 70.9786 81.5111 72.2 80.371 74.9143C79.231 77.9 79.003 80.2072 79.687 81.8357C80.599 83.1929 82.0811 85.0929 84.1331 87.5357C86.1851 89.7071 87.8951 91.4714 89.2632 92.8286C90.6312 93.9143 92.5692 93.6429 95.0772 92.0143C97.5853 90.3857 98.4973 88.6214 97.8133 86.7214C97.3573 84.55 96.9013 81.8357 96.4452 78.5786C95.9892 76.1357 95.4192 74.5071 94.7352 73.6929C94.0512 72.6072 92.6832 71.9286 90.6312 71.6571ZM94.7352 116.85C91.9992 114.95 89.3772 115.221 86.8691 117.664C85.7291 119.021 85.2731 120.243 85.5011 121.329C85.9571 122.414 86.5271 123.771 87.2111 125.4C88.1231 127.843 88.6932 129.879 88.9212 131.507C89.1492 133.136 90.2892 133.814 92.3412 133.543C94.3932 133.271 95.5332 132.457 95.7612 131.1C95.9892 129.471 96.3312 127.3 96.7873 124.586C97.0153 122.686 97.0153 121.193 96.7873 120.107C96.7873 118.75 96.1032 117.664 94.7352 116.85ZM119.36 129.879L116.966 128.25L113.887 129.879L115.598 133.136L119.018 133.95L119.36 129.879ZM97.8133 151.457C97.1293 147.386 94.9632 145.214 91.3152 144.943C89.2631 144.671 87.7811 144.943 86.8691 145.757C86.1851 146.571 85.3871 148.2 84.4751 150.643C83.7911 152.814 83.5631 154.579 83.7911 155.936C84.0191 157.021 84.9311 158.379 86.5271 160.007C87.8951 161.364 89.0352 161.771 89.9472 161.229C90.8592 160.414 91.9992 159.464 93.3672 158.379C94.9632 157.293 96.2172 156.479 97.1293 155.936C98.0413 155.121 98.2693 153.629 97.8133 151.457ZM121.07 148.2L117.992 148.607L118.334 152.679L121.07 153.493L122.78 150.643L121.07 148.2ZM140.564 166.114C139.88 164.757 139.082 164.079 138.17 164.079C137.486 164.079 136.46 164.214 135.092 164.486C132.812 164.757 131.444 165.843 130.988 167.743C130.76 169.643 131.672 171.407 133.724 173.036C135.092 173.85 136.46 173.443 137.828 171.814C138.74 170.729 139.538 169.914 140.222 169.371C140.906 168.829 141.02 167.743 140.564 166.114ZM117.308 174.257C115.484 172.357 113.887 171.407 112.519 171.407C111.379 171.136 109.669 171.679 107.389 173.036C105.565 174.121 104.653 175.343 104.653 176.7C104.653 178.057 104.767 180.093 104.995 182.807C105.451 185.25 105.793 187.286 106.021 188.914C106.249 190.271 107.503 191.221 109.783 191.764C112.291 192.036 114.001 191.764 114.913 190.95C116.054 190.136 117.08 188.371 117.992 185.657C119.132 183.214 119.702 181.314 119.702 179.957C119.702 178.329 118.904 176.429 117.308 174.257ZM94.7352 218.636C94.5072 216.464 93.5952 215.107 91.9992 214.564C91.0872 214.293 90.4032 214.429 89.9472 214.971C89.4912 215.514 89.0352 216.329 88.5792 217.414C88.1231 218.5 87.6671 219.314 87.2111 219.857C86.9831 220.4 87.2111 221.214 87.8951 222.3C88.8072 223.657 90.2892 223.793 92.3412 222.707C93.9372 221.893 94.7352 220.536 94.7352 218.636ZM142.958 225.964C142.046 220.807 140.108 218.229 137.144 218.229C134.408 218.229 130.76 217.957 126.2 217.414C123.008 217.143 120.5 217.414 118.676 218.229C117.08 218.771 115.597 220.943 114.229 224.743C112.405 229.629 110.923 233.564 109.783 236.55C108.643 239.264 109.783 242.521 113.203 246.321C117.308 250.393 120.728 252.836 123.464 253.65C126.2 254.193 129.962 252.971 134.75 249.986C139.31 246.729 142.046 243.471 142.958 240.214C144.098 236.957 144.098 232.207 142.958 225.964ZM83.4491 228.814C82.5371 228 81.3971 228.271 80.029 229.629C78.889 230.443 78.661 231.664 79.345 233.293C79.801 234.65 80.029 235.871 80.029 236.957C80.029 238.043 80.713 238.586 82.0811 238.586C83.4491 238.586 84.3611 238.179 84.8171 237.364C85.2731 236.55 85.7291 235.193 86.1851 233.293C86.4131 231.936 86.2991 230.986 85.8431 230.443C85.3871 229.9 84.5891 229.357 83.4491 228.814Z" fill="black"/>
</svg>
