<svg width="324" height="24" viewBox="0 0 324 24" fill="none" xmlns="http://www.w3.org/2000/svg">
<path d="M9.38843 22.559V15.3539H14.6058V22.559C14.6058 23.3515 15.1927 24 15.9101 24H19.8231C20.5405 24 21.1275 23.3515 21.1275 22.559V12.4719H23.3448C23.9448 12.4719 24.2318 11.6506 23.7753 11.2183L12.871 0.367457C12.3754 -0.122486 11.6188 -0.122486 11.1232 0.367457L0.218936 11.2183C-0.224539 11.6506 0.0493716 12.4719 0.649367 12.4719H2.86674V22.559C2.86674 23.3515 3.45369 24 4.17108 24H8.08409C8.80147 24 9.38843 23.3515 9.38843 22.559Z" fill="#575757"/>
<path d="M165.6 6.348V1.2C165.6 0.54 165.06 0 164.4 0H159.6C158.94 0 158.4 0.54 158.4 1.2V6.348C158.4 6.504 158.46 6.66 158.58 6.768L161.58 9.768C161.82 10.008 162.192 10.008 162.432 9.768L165.432 6.768C165.54 6.66 165.6 6.516 165.6 6.348ZM156.348 8.4H151.2C150.54 8.4 150 8.94 150 9.6V14.4C150 15.06 150.54 15.6 151.2 15.6H156.348C156.504 15.6 156.66 15.54 156.768 15.42L159.768 12.42C160.008 12.18 160.008 11.808 159.768 11.568L156.768 8.568C156.66 8.46 156.516 8.4 156.348 8.4ZM158.4 17.652V22.8C158.4 23.46 158.94 24 159.6 24H164.4C165.06 24 165.6 23.46 165.6 22.8V17.652C165.6 17.496 165.54 17.34 165.42 17.232L162.42 14.232C162.18 13.992 161.808 13.992 161.568 14.232L158.568 17.232C158.46 17.34 158.4 17.484 158.4 17.652ZM167.22 8.58L164.22 11.58C163.98 11.82 163.98 12.192 164.22 12.432L167.22 15.432C167.328 15.54 167.484 15.612 167.64 15.612H172.8C173.46 15.612 174 15.072 174 14.412V9.612C174 8.952 173.46 8.412 172.8 8.412H167.652C167.484 8.4 167.34 8.46 167.22 8.58Z" fill="#575757"/>
<path d="M308.4 15C305.592 15 300 17.0057 300 21V24H316.8V21C316.8 17.0057 311.208 15 308.4 15ZM302.808 20.5714C303.816 19.5771 306.252 18.4286 308.4 18.4286C310.548 18.4286 312.984 19.5771 313.992 20.5714H302.808ZM308.4 12C310.716 12 312.6 9.30857 312.6 6C312.6 2.69143 310.716 0 308.4 0C306.084 0 304.2 2.69143 304.2 6C304.2 9.30857 306.084 12 308.4 12ZM308.4 3.42857C309.396 3.42857 310.2 4.57714 310.2 6C310.2 7.42286 309.396 8.57143 308.4 8.57143C307.404 8.57143 306.6 7.42286 306.6 6C306.6 4.57714 307.404 3.42857 308.4 3.42857ZM316.848 15.1029C318.24 16.5429 319.2 18.4629 319.2 21V24H324V21C324 17.5371 319.8 15.5657 316.848 15.1029ZM315.6 12C317.916 12 319.8 9.30857 319.8 6C319.8 2.69143 317.916 0 315.6 0C314.952 0 314.352 0.222857 313.8 0.6C314.556 2.12571 315 3.99429 315 6C315 8.00571 314.556 9.87428 313.8 11.4C314.352 11.7771 314.952 12 315.6 12Z" fill="#F1F1F1"/>
</svg>
