<svg width="74" height="81" viewBox="0 0 74 81" fill="none" xmlns="http://www.w3.org/2000/svg">
<path d="M25.4375 80.9375C24.5896 80.9375 23.8573 80.6292 23.2406 80.0125C22.624 79.3958 22.3156 78.6635 22.3156 77.8156V24.8594H3.12188C2.27396 24.8594 1.54167 24.551 0.925 23.9344C0.308333 23.3177 0 22.5854 0 21.7375V3.12188C0 2.27396 0.308333 1.54167 0.925 0.925002C1.54167 0.308334 2.27396 0 3.12188 0H70.8781C71.7261 0 72.4583 0.308334 73.075 0.925002C73.6917 1.54167 74 2.27396 74 3.12188V21.7375C74 22.5854 73.6917 23.3177 73.075 23.9344C72.4583 24.551 71.7261 24.8594 70.8781 24.8594H51.6844V77.8156C51.6844 78.6635 51.376 79.3958 50.7594 80.0125C50.1427 80.6292 49.4104 80.9375 48.5625 80.9375H25.4375ZM16.4188 3.46875C15.6479 3.08334 15.0313 2.85209 14.5688 2.775C14.1833 2.62083 13.7208 2.81354 13.1813 3.35313C12.6417 3.81563 12.4875 4.23959 12.7188 4.625C13.0271 5.01042 13.3354 5.55 13.6438 6.24375C13.9521 6.78333 14.1448 7.24583 14.2219 7.63126C14.376 8.01667 14.7615 8.17084 15.3781 8.09375C16.226 8.01667 16.8042 7.8625 17.1125 7.63126C17.4979 7.4 17.7677 6.89896 17.9219 6.12813C18.1531 5.3573 18.1146 4.81771 17.8063 4.50938C17.4979 4.20105 17.0354 3.85417 16.4188 3.46875ZM9.36563 4.39375L8.20938 3.58438L6.9375 4.27812L7.63125 5.55L8.90313 5.66563L9.36563 4.39375ZM58.275 8.67188C57.5813 7.13021 56.8875 6.08958 56.1938 5.55C55.5 4.93334 54.3438 4.70208 52.725 4.85625C51.1063 5.01042 50.0656 5.51146 49.6031 6.35938C49.2177 7.13021 48.8708 8.28646 48.5625 9.82813C48.2542 11.2927 48.2156 12.4104 48.4469 13.1813C48.6781 13.875 49.449 14.6073 50.7594 15.3781C52.224 16.226 53.3802 16.7656 54.2281 16.9969C55.1531 17.2281 56.2708 16.7656 57.5813 15.6094C58.8917 14.4531 59.5083 13.4125 59.4313 12.4875C59.3542 11.5625 58.9688 10.2906 58.275 8.67188ZM33.6469 6.35938C32.3365 6.12813 31.3344 6.16667 30.6406 6.475C30.024 6.78333 29.3688 7.55417 28.675 8.7875C27.9813 10.2521 27.5188 11.4083 27.2875 12.2562C27.1333 13.1042 27.6344 14.0677 28.7906 15.1469C30.024 16.4573 31.1031 17.2667 32.0281 17.575C32.9531 17.8063 34.225 17.4979 35.8438 16.65C36.7688 16.1875 37.2313 15.6865 37.2313 15.1469C37.3083 14.5302 37.1927 13.875 36.8844 13.1813C36.576 12.4104 36.3448 11.524 36.1906 10.5219C35.9594 9.28855 35.7667 8.32501 35.6125 7.63126C35.5354 6.9375 34.8802 6.51355 33.6469 6.35938ZM21.6219 15.1469C20.9281 14.0677 20.4656 13.1042 20.2344 12.2562C20.0031 11.3313 19.2708 11.0229 18.0375 11.3312C16.5729 11.7167 15.6865 12.2948 15.3781 13.0656C15.1469 13.7594 14.9927 14.8385 14.9156 16.3031C14.8385 17.6906 14.9156 18.6927 15.1469 19.3094C15.4552 19.926 16.2646 20.5042 17.575 21.0438C18.8854 21.5833 19.8875 21.776 20.5813 21.6219C21.275 21.4677 22.0844 20.851 23.0094 19.7719C23.7802 18.8469 23.8958 18.1146 23.3563 17.575C22.8938 16.9583 22.3156 16.149 21.6219 15.1469ZM7.05313 13.5281C6.66771 13.1427 6.39792 12.8344 6.24375 12.6031C6.08958 12.2948 5.81979 12.2563 5.43438 12.4875C4.97188 12.7188 4.70208 12.9885 4.625 13.2969C4.54792 13.5281 4.54792 13.9135 4.625 14.4531C4.70208 14.9156 4.77917 15.2625 4.85625 15.4938C5.01042 15.725 5.35729 15.9177 5.89688 16.0719C6.35938 16.149 6.66771 16.0719 6.82188 15.8406C6.97604 15.6094 7.16875 15.301 7.4 14.9156C7.63125 14.6073 7.66979 14.376 7.51563 14.2219C7.43854 13.9906 7.28438 13.7594 7.05313 13.5281ZM66.2531 13.5281C65.6365 12.8344 64.8656 12.6802 63.9406 13.0656C63.324 13.374 62.8229 13.6438 62.4375 13.875C62.0521 14.0292 61.8979 14.4917 61.975 15.2625C62.0521 16.1104 62.1677 16.7656 62.3219 17.2281C62.5531 17.6906 63.1313 17.999 64.0563 18.1531C64.9042 18.3844 65.4052 18.2688 65.5594 17.8063C65.7135 17.2667 66.0219 16.6115 66.4844 15.8406C66.9469 14.9927 66.8698 14.2219 66.2531 13.5281ZM45.5563 15.3781C45.2479 14.6073 44.901 14.1063 44.5156 13.875C44.2073 13.6438 43.6292 13.5281 42.7813 13.5281C41.8563 13.5281 41.1625 13.6438 40.7 13.875C40.2375 14.0292 39.8906 14.5302 39.6594 15.3781C39.4281 16.3802 39.351 17.151 39.4281 17.6906C39.5823 18.1531 40.0833 18.6542 40.9313 19.1938C41.7021 19.7333 42.3188 19.8875 42.7813 19.6562C43.2438 19.3479 43.8219 18.924 44.5156 18.3844C45.1323 17.9219 45.5177 17.4979 45.6719 17.1125C45.826 16.7271 45.7875 16.149 45.5563 15.3781ZM30.6406 20.35C29.7156 20.2729 28.9833 20.2344 28.4438 20.2344C27.9813 20.1573 27.5573 20.5042 27.1719 21.275C26.7865 22.1229 26.7094 22.7781 26.9406 23.2406C27.249 23.626 27.75 24.1656 28.4438 24.8594C29.1375 25.476 29.7156 25.9771 30.1781 26.3625C30.6406 26.6708 31.2958 26.5938 32.1438 26.1313C32.9917 25.6688 33.3 25.1677 33.0688 24.6281C32.9146 24.0115 32.7604 23.2406 32.6063 22.3156C32.4521 21.6219 32.2594 21.1594 32.0281 20.9281C31.7969 20.6198 31.3344 20.4271 30.6406 20.35ZM32.0281 33.1844C31.1031 32.6448 30.2167 32.7219 29.3688 33.4156C28.9833 33.801 28.8292 34.1479 28.9063 34.4563C29.0604 34.7646 29.2531 35.15 29.4844 35.6125C29.7927 36.3063 29.9854 36.8844 30.0625 37.3469C30.1396 37.8094 30.525 38.0021 31.2188 37.925C31.9125 37.8479 32.2979 37.6167 32.375 37.2313C32.4521 36.7688 32.5677 36.1521 32.7219 35.3813C32.799 34.8417 32.799 34.4177 32.7219 34.1094C32.7219 33.724 32.4906 33.4156 32.0281 33.1844ZM40.3531 36.8844L39.5438 36.4219L38.5031 36.8844L39.0813 37.8094L40.2375 38.0406L40.3531 36.8844ZM33.0688 43.0125C32.8375 41.8563 32.1052 41.2396 30.8719 41.1625C30.1781 41.0854 29.6771 41.1625 29.3688 41.3938C29.1375 41.625 28.8677 42.0875 28.5594 42.7813C28.3281 43.3979 28.251 43.899 28.3281 44.2844C28.4052 44.5927 28.7135 44.9781 29.2531 45.4406C29.7156 45.826 30.101 45.9417 30.4094 45.7875C30.7177 45.5563 31.1031 45.2865 31.5656 44.9781C32.1052 44.6698 32.5292 44.4385 32.8375 44.2844C33.1458 44.0531 33.2229 43.6292 33.0688 43.0125ZM40.9313 42.0875L39.8906 42.2031L40.0063 43.3594L40.9313 43.5906L41.5094 42.7813L40.9313 42.0875ZM47.5219 47.175C47.2906 46.7896 47.0208 46.5969 46.7125 46.5969C46.4813 46.5969 46.1344 46.6354 45.6719 46.7125C44.901 46.7896 44.4385 47.0979 44.2844 47.6375C44.2073 48.1771 44.5156 48.6781 45.2094 49.1406C45.6719 49.3719 46.1344 49.2563 46.5969 48.7938C46.9052 48.4854 47.175 48.2542 47.4063 48.1C47.6375 47.9458 47.676 47.6375 47.5219 47.175ZM39.6594 49.4875C39.0427 48.9479 38.5031 48.6781 38.0406 48.6781C37.6552 48.601 37.0771 48.7552 36.3063 49.1406C35.6896 49.449 35.3813 49.7958 35.3813 50.1813C35.3813 50.5667 35.4198 51.1448 35.4969 51.9156C35.651 52.6094 35.7667 53.1875 35.8438 53.65C35.9208 54.0354 36.3448 54.3052 37.1156 54.4594C37.9635 54.5365 38.5417 54.4594 38.85 54.2281C39.2354 53.9969 39.5823 53.4958 39.8906 52.725C40.276 52.0312 40.4688 51.4917 40.4688 51.1063C40.4688 50.6438 40.199 50.1042 39.6594 49.4875ZM32.0281 62.0906C31.951 61.474 31.6427 61.0885 31.1031 60.9344C30.7948 60.8573 30.5635 60.8958 30.4094 61.05C30.2552 61.2042 30.101 61.4354 29.9469 61.7438C29.7927 62.0521 29.6385 62.2833 29.4844 62.4375C29.4073 62.5917 29.4844 62.8229 29.7156 63.1313C30.024 63.5167 30.525 63.5552 31.2188 63.2469C31.7583 63.0156 32.0281 62.6302 32.0281 62.0906ZM48.3313 64.1719C48.0229 62.7073 47.3677 61.975 46.3656 61.975C45.4406 61.975 44.2073 61.8979 42.6656 61.7438C41.5865 61.6667 40.7385 61.7438 40.1219 61.975C39.5823 62.1292 39.0813 62.7458 38.6188 63.825C38.0021 65.2125 37.501 66.3302 37.1156 67.1781C36.7302 67.949 37.1156 68.874 38.2719 69.9531C39.6594 71.1094 40.8156 71.8031 41.7406 72.0344C42.6656 72.1885 43.9375 71.8417 45.5563 70.9938C47.0979 70.0688 48.0229 69.1438 48.3313 68.2188C48.7167 67.2938 48.7167 65.9448 48.3313 64.1719ZM28.2125 64.9813C27.9042 64.75 27.5188 64.8271 27.0563 65.2125C26.6708 65.4438 26.5938 65.7906 26.825 66.2531C26.9792 66.6385 27.0563 66.9854 27.0563 67.2937C27.0563 67.6021 27.2875 67.7562 27.75 67.7562C28.2125 67.7562 28.5208 67.6406 28.675 67.4094C28.8292 67.1781 28.9833 66.7927 29.1375 66.2531C29.2146 65.8677 29.176 65.5979 29.0219 65.4438C28.8677 65.2896 28.5979 65.1354 28.2125 64.9813Z" fill="black"/>
</svg>
