<svg width="24" height="24" viewBox="0 0 24 24" fill="none" xmlns="http://www.w3.org/2000/svg">
<path d="M15.6 6.348V1.2C15.6 0.54 15.06 0 14.4 0H9.6C8.94 0 8.4 0.54 8.4 1.2V6.348C8.4 6.504 8.46 6.66 8.58 6.768L11.58 9.768C11.82 10.008 12.192 10.008 12.432 9.768L15.432 6.768C15.54 6.66 15.6 6.516 15.6 6.348ZM6.348 8.4H1.2C0.54 8.4 0 8.94 0 9.6V14.4C0 15.06 0.54 15.6 1.2 15.6H6.348C6.504 15.6 6.66 15.54 6.768 15.42L9.768 12.42C10.008 12.18 10.008 11.808 9.768 11.568L6.768 8.568C6.66 8.46 6.516 8.4 6.348 8.4ZM8.4 17.652V22.8C8.4 23.46 8.94 24 9.6 24H14.4C15.06 24 15.6 23.46 15.6 22.8V17.652C15.6 17.496 15.54 17.34 15.42 17.232L12.42 14.232C12.18 13.992 11.808 13.992 11.568 14.232L8.568 17.232C8.46 17.34 8.4 17.484 8.4 17.652ZM17.22 8.58L14.22 11.58C13.98 11.82 13.98 12.192 14.22 12.432L17.22 15.432C17.328 15.54 17.484 15.612 17.64 15.612H22.8C23.46 15.612 24 15.072 24 14.412V9.612C24 8.952 23.46 8.412 22.8 8.412H17.652C17.484 8.4 17.34 8.46 17.22 8.58Z" fill="#F1F1F1"/>
</svg>
