<svg width="28" height="24" viewBox="0 0 28 24" fill="none" xmlns="http://www.w3.org/2000/svg">
<path d="M13.6337 6.35292C12.0037 4.72292 9.69366 3.78292 7.15366 4.04292C3.48366 4.41292 0.463664 7.39292 0.0536639 11.0629C-0.496336 15.9129 3.25366 20.0029 7.98366 20.0029C11.1737 20.0029 13.9137 18.1329 15.1937 15.4429C15.5137 14.7729 15.0337 14.0029 14.2937 14.0029C13.9237 14.0029 13.5737 14.2029 13.4137 14.5329C12.2837 16.9629 9.57366 18.5029 6.61366 17.8429C4.39366 17.3529 2.60366 15.5429 2.13366 13.3229C1.29366 9.44292 4.24366 6.00292 7.98366 6.00292C9.64366 6.00292 11.1237 6.69292 12.2037 7.78292L10.6937 9.29292C10.0637 9.92292 10.5037 11.0029 11.3937 11.0029H14.9837C15.5337 11.0029 15.9837 10.5529 15.9837 10.0029V6.41292C15.9837 5.52292 14.9037 5.07292 14.2737 5.70292L13.6337 6.35292Z" fill="#282828"/>
</svg>
